<?xml version="1.0" encoding="utf-8" standalone="no"?>
<!DOCTYPE svg PUBLIC "-//W3C//DTD SVG 1.1//EN"
  "http://www.w3.org/Graphics/SVG/1.1/DTD/svg11.dtd">
<!-- Created with matplotlib (http://matplotlib.org/) -->
<svg height="345.6pt" version="1.1" viewBox="0 0 460.8 345.6" width="460.8pt" xmlns="http://www.w3.org/2000/svg" xmlns:xlink="http://www.w3.org/1999/xlink">
 <defs>
  <style type="text/css">
*{stroke-linecap:butt;stroke-linejoin:round;}
  </style>
 </defs>
 <g id="figure_1">
  <g id="patch_1">
   <path d="M 0 345.6 
L 460.8 345.6 
L 460.8 0 
L 0 0 
z
" style="fill:#ffffff;"/>
  </g>
  <g id="axes_1">
   <g id="patch_2">
    <path d="M 57.6 307.584 
L 414.72 307.584 
L 414.72 41.472 
L 57.6 41.472 
z
" style="fill:#ffffff;"/>
   </g>
   <g id="matplotlib.axis_1">
    <g id="xtick_1">
     <g id="line2d_1">
      <defs>
       <path d="M 0 0 
L 0 3.5 
" id="mbbc342d4df" style="stroke:#000000;stroke-width:0.8;"/>
      </defs>
      <g>
       <use style="stroke:#000000;stroke-width:0.8;" x="73.832727" xlink:href="#mbbc342d4df" y="307.584"/>
      </g>
     </g>
     <g id="text_1">
      <!-- 0 -->
      <defs>
       <path d="M 4.4375 36.328125 
Q 4.4375 56.34375 11.078125 66.625 
Q 17.71875 76.90625 30.328125 76.90625 
Q 54.34375 76.90625 54.34375 38.140625 
Q 54.34375 19 47.578125 8.859375 
Q 40.828125 -1.265625 28.609375 -1.265625 
Q 17.09375 -1.265625 10.765625 8.34375 
Q 4.4375 17.96875 4.4375 36.328125 
z
M 14.203125 36.765625 
Q 14.203125 6.640625 29.5 6.640625 
Q 44.53125 6.640625 44.53125 37.25 
Q 44.53125 68.953125 29.78125 68.953125 
Q 14.203125 68.953125 14.203125 36.765625 
z
" id="MicrosoftYaHei-30"/>
      </defs>
      <g transform="translate(70.900696 322.57775)scale(0.1 -0.1)">
       <use xlink:href="#MicrosoftYaHei-30"/>
      </g>
     </g>
    </g>
    <g id="xtick_2">
     <g id="line2d_2">
      <g>
       <use style="stroke:#000000;stroke-width:0.8;" x="115.723636" xlink:href="#mbbc342d4df" y="307.584"/>
      </g>
     </g>
     <g id="text_2">
      <!-- 200 -->
      <defs>
       <path d="M 51.171875 0 
L 5.171875 0 
L 5.171875 8.296875 
L 27.15625 30.21875 
Q 36.234375 39.3125 39.3125 44.609375 
Q 42.390625 49.90625 42.390625 55.5625 
Q 42.390625 62.015625 38.765625 65.453125 
Q 35.15625 68.890625 28.328125 68.890625 
Q 18.21875 68.890625 9.03125 60.296875 
L 9.03125 70.015625 
Q 17.96875 76.90625 29.828125 76.90625 
Q 40.046875 76.90625 45.953125 71.390625 
Q 51.859375 65.875 51.859375 56.546875 
Q 51.859375 49.515625 48.0625 42.75 
Q 44.28125 35.984375 33.734375 25.53125 
L 16.5 8.6875 
L 16.5 8.5 
L 51.171875 8.5 
z
" id="MicrosoftYaHei-32"/>
      </defs>
      <g transform="translate(106.927543 322.57775)scale(0.1 -0.1)">
       <use xlink:href="#MicrosoftYaHei-32"/>
       <use x="58.642578" xlink:href="#MicrosoftYaHei-30"/>
       <use x="117.285156" xlink:href="#MicrosoftYaHei-30"/>
      </g>
     </g>
    </g>
    <g id="xtick_3">
     <g id="line2d_3">
      <g>
       <use style="stroke:#000000;stroke-width:0.8;" x="157.614545" xlink:href="#mbbc342d4df" y="307.584"/>
      </g>
     </g>
     <g id="text_3">
      <!-- 400 -->
      <defs>
       <path d="M 55.078125 19.625 
L 45.40625 19.625 
L 45.40625 0 
L 36.140625 0 
L 36.140625 19.625 
L 0.875 19.625 
L 0.875 25.828125 
L 34.328125 75.640625 
L 45.40625 75.640625 
L 45.40625 27.203125 
L 55.078125 27.203125 
z
M 36.140625 27.203125 
L 36.140625 58.890625 
Q 36.140625 62.25 36.328125 66.65625 
L 36.140625 66.65625 
Q 35.453125 64.796875 33.25 60.84375 
L 10.75 27.203125 
z
" id="MicrosoftYaHei-34"/>
      </defs>
      <g transform="translate(148.818452 322.57775)scale(0.1 -0.1)">
       <use xlink:href="#MicrosoftYaHei-34"/>
       <use x="58.642578" xlink:href="#MicrosoftYaHei-30"/>
       <use x="117.285156" xlink:href="#MicrosoftYaHei-30"/>
      </g>
     </g>
    </g>
    <g id="xtick_4">
     <g id="line2d_4">
      <g>
       <use style="stroke:#000000;stroke-width:0.8;" x="199.505455" xlink:href="#mbbc342d4df" y="307.584"/>
      </g>
     </g>
     <g id="text_4">
      <!-- 600 -->
      <defs>
       <path d="M 49.703125 65.921875 
Q 43.796875 68.953125 37.359375 68.953125 
Q 27.546875 68.953125 21.578125 60.40625 
Q 15.625 51.859375 15.53125 37.0625 
L 15.765625 37.0625 
Q 21.140625 47.46875 32.90625 47.46875 
Q 42.71875 47.46875 48.578125 41.0625 
Q 54.4375 34.671875 54.4375 24.078125 
Q 54.4375 12.984375 47.671875 5.859375 
Q 40.921875 -1.265625 30.421875 -1.265625 
Q 18.890625 -1.265625 12.328125 7.734375 
Q 5.765625 16.75 5.765625 33.296875 
Q 5.765625 53.328125 14.375 65.109375 
Q 23 76.90625 37.0625 76.90625 
Q 45.125 76.90625 49.703125 74.703125 
z
M 16.109375 24.75 
Q 16.109375 17.28125 20.09375 11.953125 
Q 24.078125 6.640625 30.671875 6.640625 
Q 36.921875 6.640625 40.828125 11.234375 
Q 44.734375 15.828125 44.734375 23.046875 
Q 44.734375 30.859375 41.046875 35.203125 
Q 37.359375 39.546875 30.5625 39.546875 
Q 24.125 39.546875 20.109375 35.15625 
Q 16.109375 30.765625 16.109375 24.75 
z
" id="MicrosoftYaHei-36"/>
      </defs>
      <g transform="translate(190.709361 322.57775)scale(0.1 -0.1)">
       <use xlink:href="#MicrosoftYaHei-36"/>
       <use x="58.642578" xlink:href="#MicrosoftYaHei-30"/>
       <use x="117.285156" xlink:href="#MicrosoftYaHei-30"/>
      </g>
     </g>
    </g>
    <g id="xtick_5">
     <g id="line2d_5">
      <g>
       <use style="stroke:#000000;stroke-width:0.8;" x="241.396364" xlink:href="#mbbc342d4df" y="307.584"/>
      </g>
     </g>
     <g id="text_5">
      <!-- 800 -->
      <defs>
       <path d="M 21.390625 39.796875 
Q 7.859375 46.09375 7.859375 58.0625 
Q 7.859375 66.40625 14.203125 71.65625 
Q 20.5625 76.90625 30.421875 76.90625 
Q 39.453125 76.90625 45.3125 71.96875 
Q 51.171875 67.046875 51.171875 59.234375 
Q 51.171875 46.625 37.0625 39.84375 
L 37.0625 39.65625 
Q 53.609375 33.6875 53.609375 19.34375 
Q 53.609375 9.90625 46.796875 4.3125 
Q 39.984375 -1.265625 27.78125 -1.265625 
Q 17.78125 -1.265625 11.46875 4.25 
Q 5.171875 9.765625 5.171875 18.5625 
Q 5.171875 33.015625 21.390625 39.59375 
z
M 41.5 58.109375 
Q 41.5 63.1875 38.328125 66.109375 
Q 35.15625 69.046875 29.734375 69.046875 
Q 24.65625 69.046875 21.09375 65.984375 
Q 17.53125 62.9375 17.53125 58.203125 
Q 17.53125 48.734375 29.390625 43.796875 
Q 41.5 48.828125 41.5 58.109375 
z
M 28.8125 35.25 
Q 14.796875 29.59375 14.796875 19.046875 
Q 14.796875 13.578125 18.890625 10.0625 
Q 23 6.546875 29.59375 6.546875 
Q 35.984375 6.546875 39.984375 10.03125 
Q 44 13.53125 44 18.75 
Q 44 29.734375 28.8125 35.25 
z
" id="MicrosoftYaHei-38"/>
      </defs>
      <g transform="translate(232.60027 322.57775)scale(0.1 -0.1)">
       <use xlink:href="#MicrosoftYaHei-38"/>
       <use x="58.642578" xlink:href="#MicrosoftYaHei-30"/>
       <use x="117.285156" xlink:href="#MicrosoftYaHei-30"/>
      </g>
     </g>
    </g>
    <g id="xtick_6">
     <g id="line2d_6">
      <g>
       <use style="stroke:#000000;stroke-width:0.8;" x="283.287273" xlink:href="#mbbc342d4df" y="307.584"/>
      </g>
     </g>
     <g id="text_6">
      <!-- 1000 -->
      <defs>
       <path d="M 52.59375 0 
L 9.234375 0 
L 9.234375 8.25 
L 26.171875 8.25 
L 26.171875 65.671875 
L 8.796875 60.640625 
L 8.796875 69.4375 
L 35.6875 77.25 
L 35.6875 8.25 
L 52.59375 8.25 
z
" id="MicrosoftYaHei-31"/>
      </defs>
      <g transform="translate(271.559148 322.57775)scale(0.1 -0.1)">
       <use xlink:href="#MicrosoftYaHei-31"/>
       <use x="58.642578" xlink:href="#MicrosoftYaHei-30"/>
       <use x="117.285156" xlink:href="#MicrosoftYaHei-30"/>
       <use x="175.927734" xlink:href="#MicrosoftYaHei-30"/>
      </g>
     </g>
    </g>
    <g id="xtick_7">
     <g id="line2d_7">
      <g>
       <use style="stroke:#000000;stroke-width:0.8;" x="325.178182" xlink:href="#mbbc342d4df" y="307.584"/>
      </g>
     </g>
     <g id="text_7">
      <!-- 1200 -->
      <g transform="translate(313.450057 322.57775)scale(0.1 -0.1)">
       <use xlink:href="#MicrosoftYaHei-31"/>
       <use x="58.642578" xlink:href="#MicrosoftYaHei-32"/>
       <use x="117.285156" xlink:href="#MicrosoftYaHei-30"/>
       <use x="175.927734" xlink:href="#MicrosoftYaHei-30"/>
      </g>
     </g>
    </g>
    <g id="xtick_8">
     <g id="line2d_8">
      <g>
       <use style="stroke:#000000;stroke-width:0.8;" x="367.069091" xlink:href="#mbbc342d4df" y="307.584"/>
      </g>
     </g>
     <g id="text_8">
      <!-- 1400 -->
      <g transform="translate(355.340966 322.57775)scale(0.1 -0.1)">
       <use xlink:href="#MicrosoftYaHei-31"/>
       <use x="58.642578" xlink:href="#MicrosoftYaHei-34"/>
       <use x="117.285156" xlink:href="#MicrosoftYaHei-30"/>
       <use x="175.927734" xlink:href="#MicrosoftYaHei-30"/>
      </g>
     </g>
    </g>
    <g id="xtick_9">
     <g id="line2d_9">
      <g>
       <use style="stroke:#000000;stroke-width:0.8;" x="408.96" xlink:href="#mbbc342d4df" y="307.584"/>
      </g>
     </g>
     <g id="text_9">
      <!-- 1600 -->
      <g transform="translate(397.231875 322.57775)scale(0.1 -0.1)">
       <use xlink:href="#MicrosoftYaHei-31"/>
       <use x="58.642578" xlink:href="#MicrosoftYaHei-36"/>
       <use x="117.285156" xlink:href="#MicrosoftYaHei-30"/>
       <use x="175.927734" xlink:href="#MicrosoftYaHei-30"/>
      </g>
     </g>
    </g>
    <g id="text_10">
     <!-- Photo Width(pixels) -->
     <defs>
      <path d="M 19.53125 28.265625 
L 19.53125 0 
L 9.765625 0 
L 9.765625 75.640625 
L 31.25 75.640625 
Q 43.5 75.640625 50.265625 69.71875 
Q 57.03125 63.8125 57.03125 52.828125 
Q 57.03125 41.703125 49.125 34.78125 
Q 41.21875 27.875 29.34375 28.265625 
z
M 19.53125 67.046875 
L 19.53125 36.859375 
L 28.5625 36.859375 
Q 37.5 36.859375 42.140625 40.890625 
Q 46.78125 44.921875 46.78125 52.4375 
Q 46.78125 67.046875 29.5 67.046875 
z
" id="MicrosoftYaHei-50"/>
      <path d="M 54.15625 0 
L 44.625 0 
L 44.625 31.0625 
Q 44.625 47.359375 32.515625 47.359375 
Q 26.3125 47.359375 22.203125 42.59375 
Q 18.109375 37.84375 18.109375 30.609375 
L 18.109375 0 
L 8.546875 0 
L 8.546875 79.9375 
L 18.109375 79.9375 
L 18.109375 45.125 
L 18.3125 45.125 
Q 24.515625 55.28125 35.9375 55.28125 
Q 54.15625 55.28125 54.15625 33.25 
z
" id="MicrosoftYaHei-68"/>
      <path d="M 4.9375 26.421875 
Q 4.9375 39.796875 12.40625 47.53125 
Q 19.875 55.28125 32.671875 55.28125 
Q 44.828125 55.28125 51.734375 47.828125 
Q 58.640625 40.375 58.640625 27.25 
Q 58.640625 14.453125 51.265625 6.59375 
Q 43.890625 -1.265625 31.5 -1.265625 
Q 19.390625 -1.265625 12.15625 6.34375 
Q 4.9375 13.96875 4.9375 26.421875 
z
M 14.703125 26.703125 
Q 14.703125 17.390625 19.40625 12.015625 
Q 24.125 6.640625 32.078125 6.640625 
Q 40.28125 6.640625 44.578125 11.890625 
Q 48.875 17.140625 48.875 26.953125 
Q 48.875 36.8125 44.578125 42.078125 
Q 40.28125 47.359375 32.078125 47.359375 
Q 24.03125 47.359375 19.359375 41.84375 
Q 14.703125 36.328125 14.703125 26.703125 
z
" id="MicrosoftYaHei-6f"/>
      <path d="M 34.46875 0.53125 
Q 31.34375 -1.171875 26.03125 -1.171875 
Q 11.53125 -1.171875 11.53125 14.890625 
L 11.53125 46.09375 
L 2.25 46.09375 
L 2.25 54 
L 11.53125 54 
L 11.53125 67 
L 21.046875 70.015625 
L 21.046875 54 
L 34.46875 54 
L 34.46875 46.09375 
L 21.046875 46.09375 
L 21.046875 16.609375 
Q 21.046875 11.28125 22.84375 8.984375 
Q 24.65625 6.6875 28.859375 6.6875 
Q 32.078125 6.6875 34.46875 8.5 
z
" id="MicrosoftYaHei-74"/>
      <path id="MicrosoftYaHei-20"/>
      <path d="M 100.484375 75.640625 
L 79.296875 0 
L 67.921875 0 
L 52.6875 54.5 
Q 51.65625 58.203125 51.46875 62.3125 
L 51.265625 62.3125 
Q 50.984375 58.25 49.90625 54.59375 
L 34.515625 0 
L 23.25 0 
L 1.3125 75.640625 
L 12.109375 75.640625 
L 27.546875 18.5 
Q 28.5625 14.65625 28.765625 10.75 
L 29.046875 10.75 
Q 29.296875 13.671875 30.671875 18.5 
L 47.015625 75.640625 
L 56.640625 75.640625 
L 72.265625 18.0625 
Q 73.046875 15.234375 73.53125 10.84375 
L 73.734375 10.84375 
Q 73.96875 14.015625 75.140625 18.265625 
L 89.984375 75.640625 
z
" id="MicrosoftYaHei-57"/>
      <path d="M 7.375 73.046875 
Q 7.375 75.59375 9.109375 77.3125 
Q 10.84375 79.046875 13.375 79.046875 
Q 15.96875 79.046875 17.75 77.34375 
Q 19.53125 75.640625 19.53125 73.046875 
Q 19.53125 70.515625 17.75 68.828125 
Q 15.96875 67.140625 13.375 67.140625 
Q 10.796875 67.140625 9.078125 68.828125 
Q 7.375 70.515625 7.375 73.046875 
z
M 8.5 0 
L 8.5 54 
L 18.0625 54 
L 18.0625 0 
z
" id="MicrosoftYaHei-69"/>
      <path d="M 55.421875 0 
L 45.84375 0 
L 45.84375 8.984375 
L 45.65625 8.984375 
Q 39.75 -1.265625 27.296875 -1.265625 
Q 17.046875 -1.265625 10.984375 6.03125 
Q 4.9375 13.328125 4.9375 25.734375 
Q 4.9375 39.109375 11.765625 47.1875 
Q 18.609375 55.28125 29.640625 55.28125 
Q 40.671875 55.28125 45.65625 46.6875 
L 45.84375 46.6875 
L 45.84375 79.9375 
L 55.421875 79.9375 
z
M 45.90625 32.125 
Q 45.90625 38.625 41.625 42.984375 
Q 37.359375 47.359375 31.109375 47.359375 
Q 23.484375 47.359375 19.09375 41.671875 
Q 14.703125 35.984375 14.703125 26.171875 
Q 14.703125 17.140625 18.921875 11.890625 
Q 23.140625 6.640625 30.171875 6.640625 
Q 37.109375 6.640625 41.5 11.78125 
Q 45.90625 16.9375 45.90625 24.609375 
z
" id="MicrosoftYaHei-64"/>
      <path d="M 23.921875 -17.1875 
Q 7.46875 1.5625 7.46875 28.859375 
Q 7.46875 56.15625 23.921875 75.640625 
L 32.375 75.640625 
Q 15.875 55.375 15.875 28.953125 
Q 15.875 2.59375 32.28125 -17.1875 
z
" id="MicrosoftYaHei-28"/>
      <path d="M 18.109375 7.625 
L 18.109375 -24.859375 
L 8.546875 -24.859375 
L 8.546875 54 
L 18.109375 54 
L 18.109375 44.671875 
L 18.3125 44.671875 
Q 24.65625 55.28125 36.859375 55.28125 
Q 47.21875 55.28125 53.09375 48.015625 
Q 58.984375 40.765625 58.984375 28.5625 
Q 58.984375 15.09375 52.3125 6.90625 
Q 45.65625 -1.265625 34.375 -1.265625 
Q 23.96875 -1.265625 18.3125 7.625 
z
M 18.0625 22.265625 
Q 18.0625 15.671875 22.3125 11.15625 
Q 26.5625 6.640625 32.953125 6.640625 
Q 40.578125 6.640625 44.875 12.5 
Q 49.171875 18.359375 49.171875 28.71875 
Q 49.171875 37.453125 45.15625 42.40625 
Q 41.15625 47.359375 34.234375 47.359375 
Q 27.15625 47.359375 22.609375 42.328125 
Q 18.0625 37.3125 18.0625 29.4375 
z
" id="MicrosoftYaHei-70"/>
      <path d="M 49.421875 54 
L 31.34375 26.8125 
L 49.171875 0 
L 38.03125 0 
L 27.734375 17.1875 
Q 26.90625 18.5625 25.390625 21.390625 
L 25.203125 21.390625 
Q 25.140625 21.09375 22.75 17.1875 
L 12.25 0 
L 1.265625 0 
L 19.625 26.515625 
L 2.09375 54 
L 13.234375 54 
L 23.34375 35.9375 
Q 24.265625 34.28125 25.59375 31.640625 
L 25.78125 31.640625 
L 38.921875 54 
z
" id="MicrosoftYaHei-78"/>
      <path d="M 52.546875 24.5625 
L 14.75 24.5625 
Q 14.984375 15.921875 19.46875 11.203125 
Q 23.96875 6.5 32.03125 6.5 
Q 41.109375 6.5 48.6875 12.3125 
L 48.6875 3.765625 
Q 41.546875 -1.265625 29.78125 -1.265625 
Q 18.0625 -1.265625 11.5 6.15625 
Q 4.9375 13.578125 4.9375 26.765625 
Q 4.9375 39.15625 12.140625 47.21875 
Q 19.34375 55.28125 30.03125 55.28125 
Q 40.625 55.28125 46.578125 48.46875 
Q 52.546875 41.65625 52.546875 29.390625 
z
M 42.96875 32.234375 
Q 42.921875 39.546875 39.5 43.546875 
Q 36.078125 47.5625 29.890625 47.5625 
Q 24.171875 47.5625 20 43.3125 
Q 15.828125 39.0625 14.75 32.234375 
z
" id="MicrosoftYaHei-65"/>
      <path d="M 8.5 0 
L 8.5 79.9375 
L 18.0625 79.9375 
L 18.0625 0 
z
" id="MicrosoftYaHei-6c"/>
      <path d="M 5.515625 11.671875 
Q 12.75 6.453125 21.09375 6.453125 
Q 32.28125 6.453125 32.28125 13.765625 
Q 32.28125 16.890625 29.828125 18.921875 
Q 27.390625 20.953125 19.921875 23.734375 
Q 10.9375 27.34375 8.25 30.875 
Q 5.5625 34.421875 5.5625 39.453125 
Q 5.5625 46.625 11.640625 50.953125 
Q 17.71875 55.28125 26.609375 55.28125 
Q 33.5 55.28125 39.40625 52.875 
L 39.40625 43.65625 
Q 33.34375 47.5625 25.6875 47.5625 
Q 21.09375 47.5625 18.203125 45.5625 
Q 15.328125 43.5625 15.328125 40.28125 
Q 15.328125 37.0625 17.40625 35.25 
Q 19.484375 33.453125 26.609375 30.609375 
Q 35.640625 27.25 38.8125 23.625 
Q 42 20.015625 42 14.703125 
Q 42 7.28125 35.90625 3 
Q 29.828125 -1.265625 20.171875 -1.265625 
Q 11.765625 -1.265625 5.515625 1.90625 
z
" id="MicrosoftYaHei-73"/>
      <path d="M 1.21875 -17.1875 
Q 17.671875 2.546875 17.671875 28.953125 
Q 17.671875 55.421875 1.125 75.640625 
L 9.625 75.640625 
Q 26.125 56.296875 26.125 28.859375 
Q 26.125 1.421875 9.625 -17.1875 
z
" id="MicrosoftYaHei-29"/>
     </defs>
     <g transform="translate(188.881875 337.057437)scale(0.1 -0.1)">
      <use xlink:href="#MicrosoftYaHei-50"/>
      <use x="61.181641" xlink:href="#MicrosoftYaHei-68"/>
      <use x="122.753906" xlink:href="#MicrosoftYaHei-6f"/>
      <use x="186.328125" xlink:href="#MicrosoftYaHei-74"/>
      <use x="223.583984" xlink:href="#MicrosoftYaHei-6f"/>
      <use x="287.158203" xlink:href="#MicrosoftYaHei-20"/>
      <use x="316.748047" xlink:href="#MicrosoftYaHei-57"/>
      <use x="418.505859" xlink:href="#MicrosoftYaHei-69"/>
      <use x="445.117188" xlink:href="#MicrosoftYaHei-64"/>
      <use x="509.082031" xlink:href="#MicrosoftYaHei-74"/>
      <use x="546.337891" xlink:href="#MicrosoftYaHei-68"/>
      <use x="607.910156" xlink:href="#MicrosoftYaHei-28"/>
      <use x="641.308594" xlink:href="#MicrosoftYaHei-70"/>
      <use x="705.175781" xlink:href="#MicrosoftYaHei-69"/>
      <use x="731.787109" xlink:href="#MicrosoftYaHei-78"/>
      <use x="782.470703" xlink:href="#MicrosoftYaHei-65"/>
      <use x="839.208984" xlink:href="#MicrosoftYaHei-6c"/>
      <use x="865.820312" xlink:href="#MicrosoftYaHei-73"/>
      <use x="912.109375" xlink:href="#MicrosoftYaHei-29"/>
     </g>
    </g>
   </g>
   <g id="matplotlib.axis_2">
    <g id="ytick_1">
     <g id="line2d_10">
      <defs>
       <path d="M 0 0 
L -3.5 0 
" id="m977e41a881" style="stroke:#000000;stroke-width:0.8;"/>
      </defs>
      <g>
       <use style="stroke:#000000;stroke-width:0.8;" x="57.6" xlink:href="#m977e41a881" y="295.488"/>
      </g>
     </g>
     <g id="text_11">
      <!-- 0 -->
      <g transform="translate(44.735937 299.484875)scale(0.1 -0.1)">
       <use xlink:href="#MicrosoftYaHei-30"/>
      </g>
     </g>
    </g>
    <g id="ytick_2">
     <g id="line2d_11">
      <g>
       <use style="stroke:#000000;stroke-width:0.8;" x="57.6" xlink:href="#m977e41a881" y="254.829176"/>
      </g>
     </g>
     <g id="text_12">
      <!-- 100 -->
      <g transform="translate(33.007812 258.826051)scale(0.1 -0.1)">
       <use xlink:href="#MicrosoftYaHei-31"/>
       <use x="58.642578" xlink:href="#MicrosoftYaHei-30"/>
       <use x="117.285156" xlink:href="#MicrosoftYaHei-30"/>
      </g>
     </g>
    </g>
    <g id="ytick_3">
     <g id="line2d_12">
      <g>
       <use style="stroke:#000000;stroke-width:0.8;" x="57.6" xlink:href="#m977e41a881" y="214.170353"/>
      </g>
     </g>
     <g id="text_13">
      <!-- 200 -->
      <g transform="translate(33.007812 218.167228)scale(0.1 -0.1)">
       <use xlink:href="#MicrosoftYaHei-32"/>
       <use x="58.642578" xlink:href="#MicrosoftYaHei-30"/>
       <use x="117.285156" xlink:href="#MicrosoftYaHei-30"/>
      </g>
     </g>
    </g>
    <g id="ytick_4">
     <g id="line2d_13">
      <g>
       <use style="stroke:#000000;stroke-width:0.8;" x="57.6" xlink:href="#m977e41a881" y="173.511529"/>
      </g>
     </g>
     <g id="text_14">
      <!-- 300 -->
      <defs>
       <path d="M 6.984375 12.640625 
Q 14.75 6.640625 24.515625 6.640625 
Q 32.328125 6.640625 36.890625 10.46875 
Q 41.453125 14.3125 41.453125 20.75 
Q 41.453125 35.109375 20.90625 35.109375 
L 14.59375 35.109375 
L 14.59375 43.015625 
L 20.609375 43.015625 
Q 38.8125 43.015625 38.8125 56.5 
Q 38.8125 68.953125 24.90625 68.953125 
Q 16.9375 68.953125 9.90625 63.578125 
L 9.90625 72.609375 
Q 17.328125 76.90625 27.25 76.90625 
Q 36.921875 76.90625 42.78125 71.84375 
Q 48.640625 66.796875 48.640625 58.734375 
Q 48.640625 43.890625 33.5 39.65625 
L 33.5 39.453125 
Q 41.703125 38.578125 46.453125 33.671875 
Q 51.21875 28.765625 51.21875 21.4375 
Q 51.21875 11.234375 43.875 4.984375 
Q 36.53125 -1.265625 24.3125 -1.265625 
Q 13.578125 -1.265625 6.984375 2.734375 
z
" id="MicrosoftYaHei-33"/>
      </defs>
      <g transform="translate(33.007812 177.508404)scale(0.1 -0.1)">
       <use xlink:href="#MicrosoftYaHei-33"/>
       <use x="58.642578" xlink:href="#MicrosoftYaHei-30"/>
       <use x="117.285156" xlink:href="#MicrosoftYaHei-30"/>
      </g>
     </g>
    </g>
    <g id="ytick_5">
     <g id="line2d_14">
      <g>
       <use style="stroke:#000000;stroke-width:0.8;" x="57.6" xlink:href="#m977e41a881" y="132.852706"/>
      </g>
     </g>
     <g id="text_15">
      <!-- 400 -->
      <g transform="translate(33.007812 136.849581)scale(0.1 -0.1)">
       <use xlink:href="#MicrosoftYaHei-34"/>
       <use x="58.642578" xlink:href="#MicrosoftYaHei-30"/>
       <use x="117.285156" xlink:href="#MicrosoftYaHei-30"/>
      </g>
     </g>
    </g>
    <g id="ytick_6">
     <g id="line2d_15">
      <g>
       <use style="stroke:#000000;stroke-width:0.8;" x="57.6" xlink:href="#m977e41a881" y="92.193882"/>
      </g>
     </g>
     <g id="text_16">
      <!-- 500 -->
      <defs>
       <path d="M 8.640625 11.625 
Q 16.265625 6.640625 24.515625 6.640625 
Q 32.328125 6.640625 37.109375 11 
Q 41.890625 15.375 41.890625 22.609375 
Q 41.890625 29.890625 37.03125 33.890625 
Q 32.171875 37.890625 22.953125 37.890625 
Q 18.5 37.890625 10.984375 37.203125 
L 10.984375 75.640625 
L 48.1875 75.640625 
L 48.1875 67.1875 
L 19.875 67.1875 
L 19.875 45.796875 
Q 24.125 46.046875 26.265625 46.046875 
Q 38.234375 46.046875 44.921875 39.984375 
Q 51.609375 33.9375 51.609375 23.296875 
Q 51.609375 12.3125 44.421875 5.515625 
Q 37.25 -1.265625 24.609375 -1.265625 
Q 14.015625 -1.265625 8.640625 1.859375 
z
" id="MicrosoftYaHei-35"/>
      </defs>
      <g transform="translate(33.007812 96.190757)scale(0.1 -0.1)">
       <use xlink:href="#MicrosoftYaHei-35"/>
       <use x="58.642578" xlink:href="#MicrosoftYaHei-30"/>
       <use x="117.285156" xlink:href="#MicrosoftYaHei-30"/>
      </g>
     </g>
    </g>
    <g id="ytick_7">
     <g id="line2d_16">
      <g>
       <use style="stroke:#000000;stroke-width:0.8;" x="57.6" xlink:href="#m977e41a881" y="51.535059"/>
      </g>
     </g>
     <g id="text_17">
      <!-- 600 -->
      <g transform="translate(33.007812 55.531934)scale(0.1 -0.1)">
       <use xlink:href="#MicrosoftYaHei-36"/>
       <use x="58.642578" xlink:href="#MicrosoftYaHei-30"/>
       <use x="117.285156" xlink:href="#MicrosoftYaHei-30"/>
      </g>
     </g>
    </g>
    <g id="text_18">
     <!-- Intensity(pixels) -->
     <defs>
      <path d="M 26.8125 67.390625 
L 19.53125 67.390625 
L 19.53125 8.25 
L 26.8125 8.25 
L 26.8125 0 
L 2.484375 0 
L 2.484375 8.25 
L 9.765625 8.25 
L 9.765625 67.390625 
L 2.484375 67.390625 
L 2.484375 75.640625 
L 26.8125 75.640625 
z
" id="MicrosoftYaHei-49"/>
      <path d="M 54.203125 0 
L 44.671875 0 
L 44.671875 30.71875 
Q 44.671875 47.359375 32.515625 47.359375 
Q 26.21875 47.359375 22.15625 42.671875 
Q 18.109375 37.984375 18.109375 30.8125 
L 18.109375 0 
L 8.546875 0 
L 8.546875 54 
L 18.109375 54 
L 18.109375 45.0625 
L 18.3125 45.0625 
Q 24.421875 55.28125 36.03125 55.28125 
Q 44.921875 55.28125 49.5625 49.578125 
Q 54.203125 43.890625 54.203125 33.015625 
z
" id="MicrosoftYaHei-6e"/>
      <path d="M 52.484375 54 
L 27.984375 -8.15625 
Q 21.140625 -25.4375 8.6875 -25.4375 
Q 5.125 -25.4375 2.59375 -24.65625 
L 2.59375 -16.265625 
Q 5.375 -17.328125 7.953125 -17.328125 
Q 14.453125 -17.328125 17.671875 -9.71875 
L 21.828125 0.09375 
L 0.640625 54 
L 11.234375 54 
L 25.34375 13.421875 
L 26.515625 8.984375 
L 26.765625 8.984375 
Q 27.046875 10.5 27.9375 13.328125 
L 42.671875 54 
z
" id="MicrosoftYaHei-79"/>
     </defs>
     <g transform="translate(26.464062 211.895187)rotate(-90)scale(0.1 -0.1)">
      <use xlink:href="#MicrosoftYaHei-49"/>
      <use x="29.394531" xlink:href="#MicrosoftYaHei-6e"/>
      <use x="91.015625" xlink:href="#MicrosoftYaHei-74"/>
      <use x="128.271484" xlink:href="#MicrosoftYaHei-65"/>
      <use x="185.009766" xlink:href="#MicrosoftYaHei-6e"/>
      <use x="246.630859" xlink:href="#MicrosoftYaHei-73"/>
      <use x="292.919922" xlink:href="#MicrosoftYaHei-69"/>
      <use x="319.53125" xlink:href="#MicrosoftYaHei-74"/>
      <use x="356.787109" xlink:href="#MicrosoftYaHei-79"/>
      <use x="409.716797" xlink:href="#MicrosoftYaHei-28"/>
      <use x="443.115234" xlink:href="#MicrosoftYaHei-70"/>
      <use x="506.982422" xlink:href="#MicrosoftYaHei-69"/>
      <use x="533.59375" xlink:href="#MicrosoftYaHei-78"/>
      <use x="584.277344" xlink:href="#MicrosoftYaHei-65"/>
      <use x="641.015625" xlink:href="#MicrosoftYaHei-6c"/>
      <use x="667.626953" xlink:href="#MicrosoftYaHei-73"/>
      <use x="713.916016" xlink:href="#MicrosoftYaHei-29"/>
     </g>
    </g>
   </g>
   <g id="line2d_17">
    <path clip-path="url(#p64b44ad9df)" d="M 73.832727 295.488 
L 113.629091 295.488 
L 113.838545 293.048471 
L 114.048 287.356235 
L 114.257455 286.136471 
L 114.676364 282.477176 
L 115.095273 280.037647 
L 115.304727 274.345412 
L 115.514182 271.905882 
L 115.933091 254.829176 
L 116.142545 252.796235 
L 116.770909 220.675765 
L 116.980364 218.642824 
L 117.189818 217.829647 
L 117.399273 214.983529 
L 118.237091 194.654118 
L 118.656 185.709176 
L 118.865455 184.489412 
L 119.074909 180.423529 
L 119.284364 187.335529 
L 119.493818 188.148706 
L 119.912727 195.060706 
L 120.122182 198.72 
L 120.331636 199.533176 
L 120.541091 198.72 
L 120.750545 195.873882 
L 120.96 199.126588 
L 121.169455 197.500235 
L 121.378909 197.906824 
L 121.588364 197.906824 
L 121.797818 197.500235 
L 122.007273 195.467294 
L 122.216727 195.873882 
L 122.426182 194.654118 
L 122.635636 196.280471 
L 122.845091 190.181647 
L 123.054545 189.775059 
L 123.682909 182.863059 
L 123.892364 167.819294 
L 124.311273 159.280941 
L 124.520727 156.028235 
L 124.730182 156.434824 
L 124.939636 156.434824 
L 125.149091 157.654588 
L 125.358545 159.687529 
L 125.568 158.467765 
L 125.777455 158.061176 
L 125.986909 158.061176 
L 126.196364 157.654588 
L 126.615273 151.962353 
L 127.243636 158.467765 
L 127.453091 158.061176 
L 127.662545 159.280941 
L 127.872 164.16 
L 128.081455 162.940235 
L 128.290909 163.753412 
L 128.500364 163.346824 
L 129.338182 149.116235 
L 130.176 116.589176 
L 130.804364 109.677176 
L 131.013818 109.270588 
L 131.223273 110.083765 
L 131.432727 110.083765 
L 131.642182 108.457412 
L 131.851636 111.710118 
L 132.061091 120.248471 
L 132.270545 119.435294 
L 132.48 120.248471 
L 132.689455 119.435294 
L 132.898909 123.094588 
L 133.108364 124.314353 
L 133.317818 129.193412 
L 133.527273 130.006588 
L 133.946182 136.918588 
L 134.155636 143.424 
L 134.365091 139.358118 
L 134.784 143.424 
L 134.993455 141.797647 
L 135.202909 141.391059 
L 135.412364 136.918588 
L 135.831273 134.885647 
L 136.040727 128.380235 
L 136.250182 126.753882 
L 136.459636 121.468235 
L 136.669091 119.841882 
L 136.878545 120.655059 
L 137.088 120.655059 
L 137.297455 121.874824 
L 137.506909 121.468235 
L 137.716364 121.468235 
L 137.925818 121.874824 
L 138.135273 123.501176 
L 138.344727 122.281412 
L 138.554182 127.973647 
L 138.763636 128.380235 
L 139.182545 134.479059 
L 139.810909 140.171294 
L 140.020364 141.391059 
L 140.229818 141.797647 
L 140.439273 131.632941 
L 140.648727 127.567059 
L 141.067636 114.556235 
L 141.277091 113.336471 
L 141.486545 115.369412 
L 141.905455 112.929882 
L 142.114909 115.776 
L 142.533818 115.776 
L 142.743273 114.556235 
L 142.952727 111.303529 
L 143.162182 110.896941 
L 143.371636 111.710118 
L 143.581091 110.083765 
L 143.790545 110.490353 
L 144.209455 108.457412 
L 144.418909 113.336471 
L 144.837818 130.006588 
L 145.047273 131.226353 
L 145.256727 134.885647 
L 145.466182 136.512 
L 145.885091 130.413176 
L 146.094545 126.347294 
L 146.304 125.127529 
L 146.513455 120.248471 
L 146.932364 124.314353 
L 147.141818 125.534118 
L 147.560727 130.819765 
L 147.770182 132.446118 
L 148.608 156.028235 
L 149.655273 212.137412 
L 149.864727 214.576941 
L 150.283636 226.368 
L 150.493091 224.335059 
L 151.330909 240.192 
L 151.540364 241.818353 
L 151.749818 242.224941 
L 151.959273 241.818353 
L 152.168727 241.818353 
L 152.378182 240.598588 
L 152.587636 241.818353 
L 152.797091 242.224941 
L 153.844364 254.016 
L 154.263273 261.741176 
L 154.472727 263.367529 
L 154.682182 266.620235 
L 154.891636 267.433412 
L 155.310545 279.631059 
L 155.729455 283.696941 
L 156.148364 286.136471 
L 156.357818 285.729882 
L 156.567273 285.729882 
L 156.776727 284.916706 
L 157.614545 284.916706 
L 157.824 285.323294 
L 158.033455 285.323294 
L 158.242909 285.729882 
L 158.452364 285.323294 
L 159.080727 285.323294 
L 159.290182 284.510118 
L 159.709091 284.510118 
L 159.918545 284.916706 
L 160.128 283.696941 
L 160.337455 284.103529 
L 160.546909 284.103529 
L 160.756364 286.136471 
L 160.965818 286.949647 
L 161.384727 289.389176 
L 161.594182 290.202353 
L 161.803636 291.828706 
L 162.013091 295.488 
L 191.965091 295.488 
L 192.384 288.169412 
L 192.593455 286.949647 
L 192.802909 286.543059 
L 193.012364 285.323294 
L 193.221818 284.916706 
L 193.640727 282.477176 
L 193.850182 282.477176 
L 194.478545 280.444235 
L 194.897455 279.631059 
L 195.316364 278.411294 
L 195.525818 278.411294 
L 195.735273 275.971765 
L 195.944727 276.784941 
L 196.154182 276.378353 
L 196.363636 277.191529 
L 196.782545 271.499294 
L 197.201455 269.059765 
L 197.829818 254.016 
L 198.039273 247.917176 
L 199.086545 238.565647 
L 199.296 237.752471 
L 199.505455 238.159059 
L 199.924364 233.28 
L 200.133818 232.466824 
L 200.343273 227.587765 
L 200.552727 215.390118 
L 200.762182 212.137412 
L 201.181091 204.005647 
L 201.390545 184.082824 
L 202.018909 160.907294 
L 203.066182 136.918588 
L 203.275636 134.885647 
L 203.485091 126.347294 
L 203.694545 125.940706 
L 203.904 124.314353 
L 204.113455 129.193412 
L 204.322909 130.413176 
L 204.532364 133.259294 
L 205.160727 169.852235 
L 205.370182 173.918118 
L 205.998545 161.720471 
L 206.208 161.720471 
L 206.626909 166.599529 
L 206.836364 162.940235 
L 207.045818 163.346824 
L 207.255273 167.819294 
L 207.464727 169.852235 
L 207.674182 173.104941 
L 207.883636 171.072 
L 208.512 172.291765 
L 208.721455 173.511529 
L 209.140364 172.698353 
L 209.349818 179.203765 
L 209.559273 177.170824 
L 209.768727 177.577412 
L 209.978182 172.698353 
L 210.606545 166.192941 
L 210.816 163.346824 
L 211.234909 153.995294 
L 211.444364 154.401882 
L 211.863273 145.050353 
L 212.072727 143.830588 
L 212.282182 143.830588 
L 212.491636 142.610824 
L 212.701091 143.424 
L 213.538909 129.193412 
L 213.748364 121.468235 
L 213.957818 121.468235 
L 214.167273 121.874824 
L 214.586182 120.655059 
L 214.795636 120.248471 
L 215.005091 121.061647 
L 215.214545 121.061647 
L 215.424 127.160471 
L 215.842909 125.534118 
L 216.261818 131.632941 
L 216.680727 122.281412 
L 217.099636 129.6 
L 217.937455 116.589176 
L 218.146909 114.962824 
L 218.356364 111.710118 
L 218.565818 111.710118 
L 219.403636 102.765176 
L 219.613091 94.226824 
L 219.822545 77.150118 
L 220.032 75.117176 
L 220.241455 70.238118 
L 220.450909 69.831529 
L 220.660364 60.48 
L 220.869818 60.48 
L 221.079273 60.886588 
L 221.288727 60.886588 
L 221.498182 60.073412 
L 222.336 53.568 
L 222.545455 57.227294 
L 222.754909 56.414118 
L 222.964364 56.820706 
L 223.173818 56.007529 
L 223.383273 61.699765 
L 223.592727 64.139294 
L 223.802182 72.271059 
L 224.011636 71.051294 
L 224.64 97.886118 
L 224.849455 111.710118 
L 225.268364 119.841882 
L 226.106182 137.325176 
L 226.315636 138.951529 
L 226.525091 141.797647 
L 226.944 149.522824 
L 227.153455 151.149176 
L 227.362909 151.555765 
L 227.572364 149.116235 
L 227.781818 150.742588 
L 227.991273 147.489882 
L 228.200727 151.962353 
L 228.619636 171.072 
L 229.038545 180.423529 
L 229.457455 184.896 
L 229.666909 184.896 
L 229.876364 186.928941 
L 230.295273 195.873882 
L 230.714182 201.566118 
L 230.923636 212.544 
L 231.133091 215.796706 
L 231.342545 216.203294 
L 231.761455 225.554824 
L 231.970909 225.554824 
L 232.389818 216.609882 
L 232.599273 214.983529 
L 232.808727 214.576941 
L 233.437091 217.423059 
L 233.646545 217.016471 
L 233.856 216.203294 
L 234.065455 217.423059 
L 234.274909 215.796706 
L 234.484364 220.675765 
L 234.693818 221.082353 
L 235.112727 224.741647 
L 235.322182 225.554824 
L 235.531636 227.181176 
L 235.741091 232.873412 
L 236.16 228.400941 
L 236.369455 236.532706 
L 236.997818 238.565647 
L 237.416727 237.752471 
L 237.626182 238.159059 
L 237.835636 239.378824 
L 238.045091 239.785412 
L 238.254545 240.598588 
L 238.673455 246.290824 
L 238.882909 246.290824 
L 239.511273 254.016 
L 239.720727 253.202824 
L 240.139636 261.741176 
L 240.558545 265.807059 
L 241.186909 267.026824 
L 241.396364 266.620235 
L 241.605818 265.400471 
L 242.234182 265.400471 
L 242.443636 266.620235 
L 242.653091 266.213647 
L 242.862545 266.620235 
L 243.072 264.587294 
L 243.281455 264.587294 
L 243.490909 264.180706 
L 243.700364 264.180706 
L 243.909818 264.993882 
L 244.328727 264.993882 
L 244.538182 262.960941 
L 244.747636 262.960941 
L 244.957091 260.521412 
L 245.166545 260.521412 
L 245.376 259.708235 
L 245.794909 260.521412 
L 246.213818 264.180706 
L 246.423273 264.587294 
L 247.051636 273.938824 
L 247.261091 274.752 
L 248.098909 284.916706 
L 248.308364 286.949647 
L 248.727273 287.762824 
L 249.355636 295.488 
L 305.698909 295.488 
L 306.117818 288.576 
L 307.374545 281.664 
L 308.212364 278.004706 
L 308.421818 275.971765 
L 308.840727 265.400471 
L 310.097455 204.818824 
L 310.306909 200.752941 
L 310.725818 182.049882 
L 311.144727 171.885176 
L 311.563636 160.907294 
L 311.773091 157.248 
L 312.820364 94.633412 
L 313.239273 79.996235 
L 313.448727 75.523765 
L 313.658182 77.556706 
L 313.867636 74.304 
L 314.077091 82.842353 
L 314.286545 85.281882 
L 314.496 85.281882 
L 314.705455 93.820235 
L 314.914909 90.974118 
L 315.124364 90.160941 
L 315.333818 90.567529 
L 315.543273 90.567529 
L 315.752727 92.600471 
L 316.381091 109.677176 
L 316.590545 111.303529 
L 317.428364 128.380235 
L 317.637818 132.852706 
L 317.847273 133.665882 
L 318.056727 138.951529 
L 318.475636 143.424 
L 318.685091 151.555765 
L 319.104 156.434824 
L 319.313455 154.401882 
L 319.522909 154.401882 
L 319.732364 152.775529 
L 319.941818 152.368941 
L 320.151273 152.775529 
L 320.360727 154.808471 
L 320.570182 153.182118 
L 320.779636 153.995294 
L 320.989091 156.028235 
L 321.198545 154.401882 
L 321.617455 156.434824 
L 322.036364 153.995294 
L 322.245818 153.995294 
L 322.455273 153.588706 
L 323.083636 145.050353 
L 323.712 135.698824 
L 323.921455 134.072471 
L 324.130909 130.819765 
L 324.549818 122.688 
L 324.759273 119.435294 
L 324.968727 113.336471 
L 325.178182 113.336471 
L 325.387636 115.776 
L 325.597091 115.776 
L 325.806545 120.248471 
L 326.225455 116.589176 
L 326.434909 117.402353 
L 326.644364 119.028706 
L 326.853818 126.753882 
L 327.063273 118.622118 
L 327.482182 125.127529 
L 327.691636 127.160471 
L 328.32 121.468235 
L 328.529455 120.248471 
L 328.948364 123.094588 
L 329.157818 126.753882 
L 329.367273 125.534118 
L 329.576727 129.193412 
L 329.786182 130.819765 
L 329.995636 126.753882 
L 330.414545 128.380235 
L 330.624 130.413176 
L 330.833455 130.819765 
L 331.042909 128.786824 
L 331.252364 130.006588 
L 331.461818 134.072471 
L 332.090182 131.632941 
L 332.509091 134.072471 
L 332.718545 133.259294 
L 332.928 137.325176 
L 333.137455 138.544941 
L 333.765818 145.456941 
L 333.975273 144.237176 
L 334.394182 153.588706 
L 334.603636 153.995294 
L 334.813091 150.742588 
L 335.022545 150.336 
L 335.232 149.116235 
L 335.860364 155.215059 
L 336.069818 153.995294 
L 336.279273 153.588706 
L 336.698182 146.676706 
L 336.907636 140.577882 
L 337.117091 137.731765 
L 337.326545 128.786824 
L 337.536 127.973647 
L 338.373818 137.325176 
L 338.583273 138.544941 
L 339.002182 143.830588 
L 339.211636 143.830588 
L 339.421091 144.237176 
L 339.630545 147.083294 
L 339.84 147.489882 
L 340.258909 151.555765 
L 340.677818 158.874353 
L 340.887273 159.687529 
L 341.096727 158.467765 
L 341.515636 151.555765 
L 341.934545 150.336 
L 342.353455 136.105412 
L 342.562909 135.292235 
L 342.772364 130.006588 
L 343.400727 125.127529 
L 343.610182 126.753882 
L 344.029091 115.776 
L 344.448 111.710118 
L 345.076364 121.061647 
L 345.495273 134.072471 
L 345.704727 132.039529 
L 346.123636 124.720941 
L 346.542545 127.973647 
L 346.752 128.380235 
L 346.961455 131.226353 
L 347.589818 150.336 
L 348.218182 160.500706 
L 348.427636 161.720471 
L 349.056 177.170824 
L 349.684364 195.060706 
L 349.893818 195.467294 
L 350.312727 205.225412 
L 350.731636 221.082353 
L 350.941091 223.928471 
L 351.150545 223.115294 
L 351.36 225.554824 
L 351.569455 225.148235 
L 351.778909 222.708706 
L 351.988364 222.302118 
L 352.197818 222.302118 
L 352.407273 221.082353 
L 352.616727 220.675765 
L 352.826182 223.928471 
L 353.035636 222.302118 
L 353.245091 222.708706 
L 353.664 222.708706 
L 353.873455 225.148235 
L 354.292364 227.181176 
L 354.501818 228.400941 
L 354.920727 237.345882 
L 356.177455 258.081882 
L 356.386909 263.367529 
L 356.596364 264.587294 
L 356.805818 267.433412 
L 357.015273 265.807059 
L 357.224727 267.026824 
L 357.434182 269.059765 
L 357.643636 273.125647 
L 358.481455 278.817882 
L 358.900364 278.817882 
L 359.109818 280.037647 
L 359.319273 280.444235 
L 359.528727 283.290353 
L 359.738182 283.290353 
L 359.947636 286.136471 
L 360.785455 286.136471 
L 360.994909 285.729882 
L 361.413818 285.729882 
L 361.623273 286.136471 
L 361.832727 286.136471 
L 362.042182 285.729882 
L 362.251636 286.136471 
L 363.508364 286.136471 
L 363.927273 285.323294 
L 364.136727 285.323294 
L 364.346182 285.729882 
L 364.555636 285.729882 
L 364.765091 286.543059 
L 364.974545 288.982588 
L 365.184 289.795765 
L 365.393455 295.488 
L 398.487273 295.488 
L 398.487273 295.488 
" style="fill:none;stroke:#1f77b4;stroke-linecap:square;stroke-width:1.5;"/>
   </g>
   <g id="patch_3">
    <path d="M 57.6 307.584 
L 57.6 41.472 
" style="fill:none;stroke:#000000;stroke-linecap:square;stroke-linejoin:miter;stroke-width:0.8;"/>
   </g>
   <g id="patch_4">
    <path d="M 414.72 307.584 
L 414.72 41.472 
" style="fill:none;stroke:#000000;stroke-linecap:square;stroke-linejoin:miter;stroke-width:0.8;"/>
   </g>
   <g id="patch_5">
    <path d="M 57.6 307.584 
L 414.72 307.584 
" style="fill:none;stroke:#000000;stroke-linecap:square;stroke-linejoin:miter;stroke-width:0.8;"/>
   </g>
   <g id="patch_6">
    <path d="M 57.6 41.472 
L 414.72 41.472 
" style="fill:none;stroke:#000000;stroke-linecap:square;stroke-linejoin:miter;stroke-width:0.8;"/>
   </g>
  </g>
 </g>
 <defs>
  <clipPath id="p64b44ad9df">
   <rect height="266.112" width="357.12" x="57.6" y="41.472"/>
  </clipPath>
 </defs>
</svg>
